<svg xmlns="http://www.w3.org/2000/svg" viewBox="0 0 512 512">
  <!-- Background -->
  <rect width="512" height="512" rx="112" fill="#0a0a0a"/>

  <!-- Outer ring -->
  <circle cx="256" cy="256" r="180" fill="none" stroke="#2a2a2a" stroke-width="12"/>

  <!-- Inner ring -->
  <circle cx="256" cy="256" r="60" fill="none" stroke="#2a2a2a" stroke-width="10"/>

  <!-- Center hole -->
  <circle cx="256" cy="256" r="28" fill="#1a1a1a" stroke="#e8c547" stroke-width="6"/>

  <!-- Film sprocket holes (6 around the reel) -->
  <circle cx="256" cy="96" r="22" fill="#1a1a1a" stroke="#2a2a2a" stroke-width="6"/>
  <circle cx="256" cy="416" r="22" fill="#1a1a1a" stroke="#2a2a2a" stroke-width="6"/>
  <circle cx="96" cy="256" r="22" fill="#1a1a1a" stroke="#2a2a2a" stroke-width="6"/>
  <circle cx="416" cy="256" r="22" fill="#1a1a1a" stroke="#2a2a2a" stroke-width="6"/>
  <circle cx="138" cy="138" r="22" fill="#1a1a1a" stroke="#2a2a2a" stroke-width="6"/>
  <circle cx="374" cy="374" r="22" fill="#1a1a1a" stroke="#2a2a2a" stroke-width="6"/>
  <circle cx="374" cy="138" r="22" fill="#1a1a1a" stroke="#2a2a2a" stroke-width="6"/>
  <circle cx="138" cy="374" r="22" fill="#1a1a1a" stroke="#2a2a2a" stroke-width="6"/>

  <!-- Spokes -->
  <line x1="256" y1="196" x2="256" y2="118" stroke="#3a3a3a" stroke-width="8" stroke-linecap="round"/>
  <line x1="256" y1="316" x2="256" y2="394" stroke="#3a3a3a" stroke-width="8" stroke-linecap="round"/>
  <line x1="196" y1="256" x2="118" y2="256" stroke="#3a3a3a" stroke-width="8" stroke-linecap="round"/>
  <line x1="316" y1="256" x2="394" y2="256" stroke="#3a3a3a" stroke-width="8" stroke-linecap="round"/>
  <line x1="213" y1="213" x2="158" y2="158" stroke="#3a3a3a" stroke-width="8" stroke-linecap="round"/>
  <line x1="299" y1="299" x2="354" y2="354" stroke="#3a3a3a" stroke-width="8" stroke-linecap="round"/>
  <line x1="299" y1="213" x2="354" y2="158" stroke="#3a3a3a" stroke-width="8" stroke-linecap="round"/>
  <line x1="213" y1="299" x2="158" y2="354" stroke="#3a3a3a" stroke-width="8" stroke-linecap="round"/>

  <!-- Accent arc highlight -->
  <path d="M 256 76 A 180 180 0 0 1 412 182" fill="none" stroke="#e8c547" stroke-width="10" stroke-linecap="round" opacity="0.9"/>
</svg>
